<svg fill="none" height="16" viewBox="0 0 17 16" width="17" xmlns="http://www.w3.org/2000/svg"><g fill="#1e1f26"><path d="m2.1024 4.7072 6.3976 3.1984 6.3976-3.1984c-.0237-.40765-.2023-.79081-.4993-1.07102-.2971-.28021-.69-.43626-1.0983-.43618h-9.6c-.40833-.00008-.80124.15597-1.09826.43618-.29701.28021-.47566.66337-.49934 1.07102z"/><path d="m14.9 6.4944-6.4 3.2-6.4-3.2v4.7056c0 .4243.16857.8313.46863 1.1314.30006.3.70702.4686 1.13137.4686h9.6c.4243 0 .8313-.1686 1.1314-.4686.3-.3001.4686-.7071.4686-1.1314z"/></g></svg>